#!OML:ASF F:\VICON\USERDATA\INSTALL\rory3\rory3.ASF
:FULLY-SPECIFIED
:DEGREES
161
root 2.62115 16.2377 3.54148 -79.9602 -45.3942 100.276
lowerback 12.2877 -11.6858 -2.19573
upperback -1.06973 -16.0771 -1.31513
thorax -7.64782 -7.79097 2.73328
lowerneck -7.60898 5.81503 1.18295
upperneck 45.7752 -1.16654 9.61786
head 18.8128 -0.0604602 3.94038
rclavicle -2.8625e-014 8.5875e-014
rhumerus 54.4358 -51.0462 -61.2728
rradius 14.2851
rwrist 29.4983
rhand -28.6134 16.1042
rfingers 7.12502
rthumb -1.97831 -13.8663
lclavicle -2.8625e-014 8.5875e-014
lhumerus 2.62769 -5.77347 22.471
lradius 17.6504
lwrist -53.7497
lhand 7.33259 28.3907
lfingers 7.12502
lthumb 32.5922 55.4761
rfemur -78.197 -51.0391 12.057
rtibia 60.6808
rfoot -51.172 -40.6419
rtoes 40.8209
lfemur -18.1567 -32.095 29.3583
ltibia 18.824
lfoot -72.0705 -24.6735
ltoes 53.4247
162
root 2.58603 16.3107 3.49707 -80.7226 -45.758 100.893
lowerback 12.1564 -11.6392 -2.06604
upperback -1.0152 -16.0056 -1.44177
thorax -7.59119 -7.77 2.50026
lowerneck -7.72384 5.35176 0.910261
upperneck 45.4801 -1.64607 9.39098
head 18.6827 -0.334227 3.77476
rclavicle -1.81292e-013 3.33958e-014
rhumerus 50.6609 -49.9388 -60.1335
rradius 14.3461
rwrist 26.8424
rhand -28.8457 17.4203
rfingers 7.12502
rthumb -2.20271 -12.5481
lclavicle -1.81292e-013 3.33958e-014
lhumerus 2.29087 -5.70102 23.4548
lradius 17.6991
lwrist -53.2149
lhand 5.53165 28.7963
lfingers 7.12502
lthumb 30.8769 56.2211
rfemur -76.3419 -50.1094 11.4906
rtibia 59.6263
rfoot -52.1743 -40.3435
rtoes 41.7199
lfemur -17.9671 -32.243 28.2732
ltibia 18.7006
lfoot -72.3551 -24.3344
ltoes 53.5637
163
root 2.57984 16.387 3.44554 -81.1138 -46.1066 101.215
lowerback 12.0643 -11.5635 -1.99389
upperback -0.961569 -15.8913 -1.46531
thorax -7.51178 -7.72236 2.39645
lowerneck -8.07819 4.84358 0.657028
upperneck 45.2482 -2.15639 9.08823
head 18.6642 -0.61345 3.57868
rclavicle 1.49486e-013 -4.29375e-014
rhumerus 46.4573 -48.659 -58.1801
rradius 14.6387
rwrist 23.6303
rhand -28.8167 18.3835
rfingers 7.12502
rthumb -2.17468 -11.5852
lclavicle 1.49486e-013 -4.29375e-014
lhumerus 1.81727 -3.93669 25.1782
lradius 17.4879
lwrist -54.1177
lhand 3.15591 28.5825
lfingers 7.12502
lthumb 28.6095 56.4127
rfemur -74.445 -49.0278 10.8406
rtibia 58.4166
rfoot -53.722 -39.9226
rtoes 43.0973
lfemur -18.4785 -30.383 27.1683
ltibia 19.1834
lfoot -71.1666 -22.9454
ltoes 53.3758
164
root 2.53778 16.4792 3.41761 -81.8983 -46.2843 102.288
lowerback 11.3524 -11.398 -1.6088
upperback -0.951083 -15.6317 -1.74339
thorax -7.29518 -7.63635 1.74362
lowerneck -8.25172 4.41625 0.493252
upperneck 45.055 -2.74072 9.05051
head 18.6402 -0.887793 3.4804
rclavicle 6.36111e-014 -2.8625e-014
rhumerus 41.7834 -46.8005 -55.911
rradius 15.0766
rwrist 20.1175
rhand -28.4717 18.6115
rfingers 7.12502
rthumb -1.84144 -11.3603
lclavicle 6.36111e-014 -2.8625e-014
lhumerus 1.30688 -3.08557 26.6625
lradius 17.3696
lwrist -54.5661
lhand 4.43523 26.0465
lfingers 7.12502
lthumb 29.8311 53.6642
rfemur -73.0844 -47.8879 10.4445
rtibia 57.0157
rfoot -54.1153 -39.9963
rtoes 43.5778
lfemur -18.7071 -30.1309 25.6509
ltibia 19.6774
lfoot -71.1646 -23.2723
ltoes 53.3493
165
root 2.51721 16.5471 3.36265 -82.7789 -46.2392 103.073
lowerback 11.2564 -11.2008 -1.98789
upperback -0.90203 -15.4623 -2.08214
thorax -7.19077 -7.56036 1.5363
lowerneck -8.33306 4.02019 0.387753
upperneck 44.8472 -3.40774 9.2322
head 18.6023 -1.16461 3.46155
rclavicle -6.04305e-014 -4.92986e-014
rhumerus 37.8878 -45.5917 -54.9603
rradius 15.5126
rwrist 17.6019
rhand -27.6054 18.7711
rfingers 7.12502
rthumb -1.00478 -11.2063
lclavicle -6.04305e-014 -4.92986e-014
lhumerus 0.909372 -2.97498 27.817
lradius 17.3895
lwrist -54.9352
lhand 1.55512 26.9642
lfingers 7.12502
lthumb 27.0791 55.0423
rfemur -71.453 -46.9589 9.74284
rtibia 55.7231
rfoot -54.4279 -40.0961
rtoes 43.862
lfemur -18.9375 -27.922 23.6408
ltibia 20.415
lfoot -69.9418 -21.7823
ltoes 53.567
166
root 2.48701 16.628 3.31615 -83.584 -46.4225 104.166
lowerback 10.964 -11.4782 -2.06089
upperback -1.21944 -15.826 -1.8915
thorax -7.28931 -7.72595 1.79364
lowerneck -8.3748 4.17257 -0.633041
upperneck 44.9481 -2.89278 9.14924
head 18.6028 -1.16416 3.69529
rclavicle -3.49861e-014 -2.8625e-014
rhumerus 35.7316 -42.9439 -55.3269
rradius 15.7849
rwrist 15.3918
rhand -26.9333 18.7054
rfingers 7.12502
rthumb -0.355661 -11.2741
lclavicle -3.49861e-014 -2.8625e-014
lhumerus -1.2274 -1.54076 29.0238
lradius 17.156
lwrist -55.63
lhand -0.339558 26.992
lfingers 7.12502
lthumb 25.2651 55.3391
rfemur -70.0918 -45.5991 9.41578
rtibia 54.2512
rfoot -54.9978 -40.2125
rtoes 44.3675
lfemur -19.5779 -26.2901 21.9467
ltibia 21.5252
lfoot -69.3126 -21.1419
ltoes 53.6399
167
root 2.47215 16.7116 3.27012 -84.118 -46.1995 105.046
lowerback 10.4686 -11.2505 -2.45467
upperback -1.27562 -15.5906 -2.09752
thorax -7.03564 -7.62143 1.64072
lowerneck -8.85768 3.77615 -0.656999
upperneck 44.9962 -3.42801 8.92119
head 18.8211 -1.40809 3.50841
rclavicle 3.49861e-014 -4.6118e-014
rhumerus 32.3571 -41.9257 -54.7769
rradius 16.3713
rwrist 13.5597
rhand -26.4928 18.4826
rfingers 7.12502
rthumb 0.0697756 -11.4971
lclavicle 3.49861e-014 -4.6118e-014
lhumerus -1.52748 -2.17174 30.2311
lradius 17.0643
lwrist -54.333
lhand -1.08178 27.4723
lfingers 7.12502
lthumb 24.5538 55.9178
rfemur -68.7644 -44.2487 8.55366
rtibia 52.8034
rfoot -55.8621 -40.2815
rtoes 44.9009
lfemur -20.5021 -24.6199 19.9479
ltibia 22.4405
lfoot -68.3669 -18.2338
ltoes 53.5089
168
root 2.43661 16.7929 3.23608 -85.3895 -46.1316 106.41
lowerback 10.1135 -10.994 -2.73456
upperback -1.19626 -15.287 -2.246
thorax -6.72957 -7.48563 1.49712
lowerneck -9.30737 3.50809 -1.0026
upperneck 45.0059 -3.76926 8.94286
head 18.9925 -1.59881 3.53164
rclavicle 1.04958e-013 6.20208e-014
rhumerus 29.3971 -40.7018 -54.5421
rradius 17.0387
rwrist 11.6849
rhand -26.0958 18.4119
rfingers 7.12502
rthumb 0.453218 -11.5674
lclavicle 1.04958e-013 6.20208e-014
lhumerus -2.19587 -0.53866 31.6796
lradius 17.0008
lwrist -55.0567
lhand -1.302 27.2504
lfingers 7.12502
lthumb 24.3427 55.7245
rfemur -67.0099 -42.6971 7.65235
rtibia 51.2418
rfoot -56.4545 -40.2921
rtoes 45.4411
lfemur -20.8381 -24.4088 17.9681
ltibia 23.5193
lfoot -67.7492 -16.9575
ltoes 53.3714
169
root 2.41804 16.8675 3.19035 -86.9401 -46.4177 107.815
lowerback 10.2491 -10.7124 -2.96542
upperback -1.04643 -14.9449 -2.30548
thorax -6.61062 -7.31655 1.50974
lowerneck -9.65212 3.17156 -1.27602
upperneck 44.7931 -4.18822 9.01321
head 19.0005 -1.79758 3.53463
rclavicle 7.31528e-014 6.52014e-014
rhumerus 26.6457 -39.6017 -54.5549
rradius 17.588
rwrist 9.89523
rhand -25.861 18.6288
rfingers 7.12502
rthumb 0.679994 -11.3498
lclavicle 7.31528e-014 6.52014e-014
lhumerus -3.05456 -0.603842 32.6956
lradius 17.1225
lwrist -54.3763
lhand -1.4726 26.3797
lfingers 7.12502
lthumb 24.1791 54.8756
rfemur -65.0044 -40.8972 7.08475
rtibia 49.6969
rfoot -57.0339 -40.2012
rtoes 46.099
lfemur -20.862 -22.73 16.189
ltibia 24.4319
lfoot -66.2459 -15.6497
ltoes 53.3593
170
root 2.39957 16.9358 3.14752 -88.0041 -46.7547 109.117
lowerback 9.93161 -10.4442 -3.09815
upperback -1.02936 -14.5793 -2.24221
thorax -6.37497 -7.1416 1.51752
lowerneck -9.97505 2.80361 -1.2629
upperneck 44.6717 -4.5481 8.63725
head 19.0333 -1.9746 3.27664
rclavicle 5.56597e-014 7.15625e-014
rhumerus 23.9588 -38.5483 -54.445
rradius 17.9996
rwrist 8.23567
rhand -25.9752 19.0158
rfingers 7.12502
rthumb 0.569728 -10.9632
lclavicle 5.56597e-014 7.15625e-014
lhumerus -3.86382 -1.79369 33.6114
lradius 17.1059
lwrist -52.8089
lhand -2.22832 25.9649
lfingers 7.12502
lthumb 23.4544 54.5553
rfemur -63.4696 -39.0241 6.80255
rtibia 48.1162
rfoot -57.1598 -40.1631
rtoes 46.4979
lfemur -21.3866 -20.5931 14.6296
ltibia 25.2102
lfoot -64.7704 -14.9664
ltoes 53.3693
171
root 2.37758 16.9984 3.0971 -89.5352 -46.9912 110.641
lowerback 10.0437 -10.5269 -3.57759
upperback -1.1442 -14.7221 -1.91068
thorax -6.34792 -7.18351 2.12806
lowerneck -10.3491 2.95366 -1.74853
upperneck 44.9913 -3.92078 7.9588
head 19.249 -1.90106 3.15745
rclavicle -5.725e-014 -1.90833e-014
rhumerus 22.7169 -37.1521 -55.7203
rradius 18.207
rwrist 7.46936
rhand -25.9482 19.6663
rfingers 7.12502
rthumb 0.59577 -10.3126
lclavicle -5.725e-014 -1.90833e-014
lhumerus -5.87779 -0.539681 34.4435
lradius 16.7629
lwrist -53.0936
lhand -3.58089 25.7875
lfingers 7.12502
lthumb 22.1564 54.5379
rfemur -61.5856 -36.8802 6.18344
rtibia 46.62
rfoot -57.098 -39.5723
rtoes 46.7108
lfemur -21.4302 -18.6661 12.8752
ltibia 25.7509
lfoot -63.9857 -11.4449
ltoes 53.6525
172
root 2.35599 17.0576 3.05392 -90.9666 -47.328 112.237
lowerback 9.97736 -10.3042 -3.24491
upperback -1.3443 -14.4179 -2.14383
thorax -6.68015 -7.03916 1.7114
lowerneck -10.0029 2.7089 -1.78792
upperneck 44.6886 -4.27558 7.98321
head 18.9866 -2.06597 3.08726
rclavicle 1.11319e-013 0
rhumerus 19.6138 -36.4511 -55.9931
rradius 18.4361
rwrist 6.51557
rhand -25.9791 20.44
rfingers 7.12502
rthumb 0.565931 -9.53902
lclavicle 1.11319e-013 0
lhumerus -7.1818 -1.6398 34.8315
lradius 16.7951
lwrist -52.1723
lhand -4.13678 26.0995
lfingers 7.12502
lthumb 21.6226 54.9123
rfemur -59.9678 -34.5617 5.68319
rtibia 45.2078
rfoot -57.3101 -38.7077
rtoes 46.6991
lfemur -21.5798 -17.1739 11.409
ltibia 26.1542
lfoot -62.8527 -9.58958
ltoes 53.5566
173
root 2.3346 17.1082 3.00678 -92.4913 -47.1947 113.924
lowerback 9.3071 -7.63548 -1.61817
upperback -0.477847 -10.9362 -5.10413
thorax -6.39455 -5.52609 -2.79211
lowerneck -10.65 0.0534061 2.99121
upperneck 43.7433 -10.1271 8.65522
head 19.077 -3.44665 1.42971
rclavicle -5.40694e-014 5.56597e-014
rhumerus 8.66966 -42.3883 -51.5007
rradius 19.7906
rwrist 4.90738
rhand -25.9824 20.5442
rfingers 7.12502
rthumb 0.562729 -9.43483
lclavicle -5.40694e-014 5.56597e-014
lhumerus -0.858176 -15.7206 33.1954
lradius 18.3695
lwrist -43.0096
lhand -2.96327 27.4894
lfingers 7.12502
lthumb 22.7492 56.1682
rfemur -58.538 -32.1941 4.75747
rtibia 43.9873
rfoot -57.1105 -37.8684
rtoes 46.3209
lfemur -21.5235 -15.3859 9.43054
ltibia 26.2711
lfoot -61.6569 -7.41363
ltoes 53.6683
174
root 2.3137 17.1445 2.95885 -94.0181 -46.612 115.615
lowerback 8.93483 -5.76926 -1.16108
upperback 0.0149253 -8.58623 -7.12097
thorax -5.93583 -4.48426 -5.59438
lowerneck -11.4427 -1.67789 5.6492
upperneck 42.8302 -14.0805 9.72227
head 19.0419 -4.42056 0.683667
rclavicle 1.74931e-014 3.97569e-014
rhumerus 0.087382 -46.0182 -48.1732
rradius 20.9288
rwrist 3.79218
rhand -25.8886 20.6955
rfingers 7.12502
rthumb 0.653316 -9.28329
lclavicle 1.74931e-014 3.97569e-014
lhumerus 3.32478 -23.3913 30.7783
lradius 19.4164
lwrist -38.2378
lhand -2.19479 27.5208
lfingers 7.12502
lthumb 23.4866 56.1071
rfemur -57.2519 -29.7009 3.37474
rtibia 42.844
rfoot -56.8617 -37.1966
rtoes 46.2286
lfemur -21.6396 -13.6751 7.03304
ltibia 26.6339
lfoot -60.6657 -5.18361
ltoes 53.6271
